<?xml version="1.0" encoding="UTF-8"?>
<!DOCTYPE svg PUBLIC "-//W3C//DTD SVG 1.1//EN" "http://www.w3.org/Graphics/SVG/1.1/DTD/svg11.dtd">
<!-- Creator: CorelDRAW X6 -->
<svg xmlns="http://www.w3.org/2000/svg" xml:space="preserve" width="201px" height="113px" version="1.1" style="shape-rendering:geometricPrecision; text-rendering:geometricPrecision; image-rendering:optimizeQuality; fill-rule:evenodd; clip-rule:evenodd"
viewBox="0 0 201 113"
 xmlns:xlink="http://www.w3.org/1999/xlink">
 <defs>
  <style type="text/css">
   <![CDATA[
    .str1 {stroke:#ED3237;stroke-width:0.0942187}
    .str0 {stroke:#ED3237;stroke-width:2.47293;stroke-linecap:square}
    .fil0 {fill:none}
    .fil1 {fill:#ED3237}
   ]]>
  </style>
 </defs>
 <g id="Camada_x0020_1">
  <metadata id="CorelCorpID_0Corel-Layer"/>
  <path class="fil0 str0" d="M95 29c-3,1 -27,9 -27,9 0,0 0,37 0,39 3,9 21,21 27,27 7,-7 24,-16 26,-28 1,-14 1,-25 1,-39 -1,-1 -23,-7 -27,-10l0 0z"/>
  <path class="fil1 str1" d="M90 68l-9 -7c-1,0 -5,4 -5,4 1,1 12,12 14,14 4,3 1,3 7,-7 3,-5 7,-11 11,-15l3 -3c1,-1 3,-3 3,-3 0,-1 -1,-2 -2,-3 -1,0 -8,5 -9,7 -4,3 -10,8 -12,12 0,0 -1,1 -1,1z"/>
 </g>
</svg>
